<svg width="88" height="57" viewBox="0 0 88 57" fill="none" xmlns="http://www.w3.org/2000/svg">
<path d="M18.0865 54.1854C26.3161 54.1854 32.9875 47.514 32.9875 39.2844C32.9875 31.0548 26.3161 24.3834 18.0865 24.3834C9.85695 24.3834 3.18555 31.0548 3.18555 39.2844C3.18555 47.514 9.85695 54.1854 18.0865 54.1854Z" fill="#BDC3C7"/>
<path d="M18.0859 56.8947C8.37583 56.8947 0.475586 48.9945 0.475586 39.2845C0.475586 29.5744 8.37583 21.6742 18.0859 21.6742C27.7959 21.6742 35.6961 29.5744 35.6961 39.2845C35.6961 48.9945 27.7959 56.8947 18.0859 56.8947ZM18.0859 27.0927C11.3642 27.0927 5.89413 32.5628 5.89413 39.2845C5.89413 46.0062 11.3642 51.4762 18.0859 51.4762C24.8076 51.4762 30.2776 46.0062 30.2776 39.2845C30.2776 32.5628 24.8076 27.0927 18.0859 27.0927Z" fill="#BDC3C7"/>
<path d="M64.1432 54.1854C72.3728 54.1854 79.0442 47.514 79.0442 39.2844C79.0442 31.0548 72.3728 24.3834 64.1432 24.3834C55.9136 24.3834 49.2422 31.0548 49.2422 39.2844C49.2422 47.514 55.9136 54.1854 64.1432 54.1854Z" fill="#BDC3C7"/>
<path d="M64.1445 56.8947C54.4344 56.8947 46.5342 48.9945 46.5342 39.2845C46.5342 29.5744 54.4344 21.6742 64.1445 21.6742C73.8545 21.6742 81.7547 29.5744 81.7547 39.2845C81.7547 48.9945 73.8545 56.8947 64.1445 56.8947ZM64.1445 27.0927C57.4227 27.0927 51.9527 32.5628 51.9527 39.2845C51.9527 46.0062 57.4227 51.4762 64.1445 51.4762C70.8662 51.4762 76.3362 46.0062 76.3362 39.2845C76.3362 32.5628 70.8662 27.0927 64.1445 27.0927Z" fill="#BDC3C7"/>
<path d="M3.18584 40.6391C1.68761 40.6391 0.476562 39.4281 0.476562 37.9298C0.476562 17.0142 17.4908 0 38.4064 0C39.9046 0 41.1157 1.21105 41.1157 2.70927C41.1157 4.2075 39.9046 5.41855 38.4064 5.41855C20.4791 5.41855 5.89511 20.0026 5.89511 37.9298C5.89511 39.4281 4.68406 40.6391 3.18584 40.6391Z" fill="#BDC3C7"/>
<path d="M49.2435 40.6391C47.7452 40.6391 46.5342 39.4281 46.5342 37.9298C46.5342 17.0142 63.5484 0 84.464 0C85.9622 0 87.1733 1.21105 87.1733 2.70927C87.1733 4.2075 85.9622 5.41855 84.464 5.41855C66.5367 5.41855 51.9527 20.0026 51.9527 37.9298C51.9527 39.4281 50.7417 40.6391 49.2435 40.6391Z" fill="#BDC3C7"/>
</svg>
