<svg width="54" height="55" viewBox="0 0 54 55" fill="none" xmlns="http://www.w3.org/2000/svg">
<path d="M24.8341 0.0481561C20.0518 0.707136 18.0937 1.27198 14.7611 2.94767C8.00189 6.3367 2.78654 12.7947 0.847259 20.1376C0.18828 22.6041 0 24.2798 0 27.1416C0.018828 30.4177 0.357732 32.6206 1.29913 35.4448C3.23841 41.2814 6.98518 46.1955 12.1064 49.6411C14.8741 51.505 19.1857 53.1619 22.8572 53.8021C25.1354 54.1974 29.7294 54.1033 32.0829 53.6138C43.2291 51.2603 51.2498 43.2584 53.5656 32.131C54.0551 29.7587 54.1493 25.1459 53.7539 22.9053C52.3795 15.1482 48.2938 8.74668 41.9676 4.51039C39.1999 2.64642 35.0765 0.989555 31.8005 0.405888C30.1059 0.123468 25.9073 -0.102468 24.8341 0.0481561ZM31.3486 1.79916C36.7522 2.77821 41.2709 5.13171 45.0742 8.95379C48.0678 11.9663 50.0071 15.0541 51.2686 18.8573C52.1535 21.5497 52.4359 23.1689 52.5489 26.2944C52.6242 28.742 52.5866 29.5704 52.2477 31.3967C51.2686 36.8192 48.9528 41.2626 45.093 45.1412C38.2961 51.9381 28.5809 54.3292 19.374 51.505C11.4098 49.0574 4.98942 42.6182 2.54178 34.6728C0.621323 28.3654 1.11085 21.7003 3.95388 15.8072C6.26972 10.9872 10.9579 6.28022 15.759 4.00203C20.6166 1.68619 26.2839 0.876587 31.3486 1.79916Z" fill="white" style="mix-blend-mode:difference"/>
<path d="M12.4076 22.4534C8.2843 26.0119 7.41821 26.8027 7.41821 27.0475C7.41821 27.2922 8.2843 28.083 12.4076 31.6415C15.5519 34.3339 16.2674 34.7669 16.531 34.0891C16.5874 33.9197 16.6439 32.4511 16.6439 30.7942V27.8006H26.9993H37.3547V30.7942C37.3547 32.4511 37.4112 33.9197 37.4677 34.0891C37.7313 34.7858 38.4656 34.3151 42.3441 30.9825C44.5282 29.1185 46.3733 27.4617 46.4486 27.3111C46.5239 27.1604 46.5239 26.9345 46.4486 26.7839C46.3733 26.6332 44.5282 24.9764 42.3441 23.1124C38.4656 19.761 37.7313 19.3092 37.4677 20.0058C37.4112 20.1752 37.3547 21.6438 37.3547 23.3007V26.2943H26.9993H16.6439V23.3007C16.6439 21.6438 16.5874 20.1752 16.531 20.0058C16.2674 19.328 15.5519 19.761 12.4076 22.4534ZM42.0429 24.694C43.4926 25.9366 44.6788 26.991 44.6788 27.0475C44.6788 27.1981 39.2752 31.7545 38.9551 31.8674C38.7103 31.9616 38.6727 31.3591 38.6727 26.9533C38.6727 21.9827 38.6727 21.9262 39.0492 22.171C39.2375 22.3216 40.5931 23.4513 42.0429 24.694ZM15.1377 27.0663C15.1377 31.9239 15.1377 31.9804 14.7611 31.7356C14.1398 31.2838 9.31984 27.1416 9.31984 27.0475C9.31984 26.9157 14.8364 22.171 15.0059 22.1522C15.0812 22.1522 15.1377 24.3739 15.1377 27.0663Z" fill="white" style="mix-blend-mode:difference"/>
</svg>
